999
dxfrw 0.6.3
  0
SECTION
  2
HEADER
  9
$ACADVER
  1
AC1021
  9
$DWGCODEPAGE
  3
ANSI_1252
  9
$INSBASE
 10
0
 20
0
 30
0
  9
$EXTMIN
 10
31
 20
31
 30
0
  9
$EXTMAX
 10
1250.342279842473
 20
897
 30
0
  9
$LIMMIN
 10
0
 20
0
  9
$LIMMAX
 10
420
 20
297
  9
$ORTHOMODE
 70
    0
  9
$REGENMODE
 70
    1
  9
$FILLMODE
 70
    1
  9
$QTEXTMODE
 70
    0
  9
$MIRRTEXT
 70
    0
  9
$LTSCALE
 40
1
  9
$ATTMODE
 70
    0
  9
$TEXTSIZE
 40
2.5
  9
$TRACEWID
 40
15.68
  9
$TEXTSTYLE
  7
STANDARD
  9
$CLAYER
  8
0
  9
$CELTYPE
  6
BYLAYER
  9
$CECOLOR
 62
  256
  9
$CELTSCALE
 40
1
  9
$DISPSILH
 70
    0
  9
$DIMSCALE
 40
2.5
  9
$DIMASZ
 40
2.5
  9
$DIMEXO
 40
0.625
  9
$DIMDLI
 40
3.75
  9
$DIMRND
 40
0
  9
$DIMDLE
 40
0
  9
$DIMEXE
 40
1.25
  9
$DIMTP
 40
0
  9
$DIMTM
 40
0
  9
$DIMTXT
 40
2.5
  9
$DIMCEN
 40
2.5
  9
$DIMTSZ
 40
0
  9
$DIMTOL
 70
    0
  9
$DIMLIM
 70
    0
  9
$DIMTIH
 70
    0
  9
$DIMTOH
 70
    0
  9
$DIMSE1
 70
    0
  9
$DIMSE2
 70
    0
  9
$DIMTAD
 70
    1
  9
$DIMZIN
 70
    8
  9
$DIMBLK
  1

  9
$DIMASO
 70
    1
  9
$DIMSHO
 70
    1
  9
$DIMPOST
  1

  9
$DIMAPOST
  1

  9
$DIMALT
 70
    0
  9
$DIMALTD
 70
    3
  9
$DIMALTF
 40
0.03937
  9
$DIMLFAC
 40
1
  9
$DIMTOFL
 70
    1
  9
$DIMTVP
 40
0
  9
$DIMTIX
 70
    0
  9
$DIMSOXD
 70
    0
  9
$DIMSAH
 70
    0
  9
$DIMBLK1
  1

  9
$DIMBLK2
  1

  9
$DIMSTYLE
  2
Standard
  9
$DIMCLRD
 70
    0
  9
$DIMCLRE
 70
    0
  9
$DIMCLRT
 70
    0
  9
$DIMTFAC
 40
1
  9
$DIMGAP
 40
0.625
  9
$DIMJUST
 70
    0
  9
$DIMSD1
 70
    0
  9
$DIMSD2
 70
    0
  9
$DIMTOLJ
 70
    0
  9
$DIMTZIN
 70
    8
  9
$DIMALTZ
 70
    0
  9
$DIMALTTZ
 70
    0
  9
$DIMUPT
 70
    0
  9
$DIMDEC
 70
    2
  9
$DIMTDEC
 70
    2
  9
$DIMALTU
 70
    2
  9
$DIMALTTD
 70
    3
  9
$DIMTXSTY
  7
STANDARD
  9
$DIMAUNIT
 70
    0
  9
$DIMADEC
 70
    0
  9
$DIMALTRND
 40
0
  9
$DIMAZIN
 70
    0
  9
$DIMDSEP
 70
   44
  9
$DIMATFIT
 70
    3
  9
$DIMFRAC
 70
    0
  9
$DIMLDRBLK
  1
STANDARD
  9
$DIMLUNIT
 70
    2
  9
$DIMLWD
 70
   -2
  9
$DIMLWE
 70
   -2
  9
$DIMTMOVE
 70
    0
  9
$DIMFXL
 40
1
  9
$DIMFXLON
 70
    0
  9
$DIMJOGANG
 40
0.7854
  9
$DIMTFILL
 70
    0
  9
$DIMTFILLCLR
 70
    0
  9
$DIMARCSYM
 70
    0
  9
$DIMLTYPE
  6

  9
$DIMLTEX1
  6

  9
$DIMLTEX2
  6

  9
$LUNITS
 70
    2
  9
$LUPREC
 70
    4
  9
$SKETCHINC
 40
1
  9
$FILLETRAD
 40
0
  9
$AUNITS
 70
    0
  9
$AUPREC
 70
    2
  9
$MENU
  1
.
  9
$ELEVATION
 40
0
  9
$PELEVATION
 40
0
  9
$THICKNESS
 40
0
  9
$LIMCHECK
 70
    0
  9
$CHAMFERA
 40
0
  9
$CHAMFERB
 40
0
  9
$CHAMFERC
 40
0
  9
$CHAMFERD
 40
0
  9
$SKPOLY
 70
    0
  9
$USRTIMER
 70
    1
  9
$ANGBASE
 50
0
  9
$ANGDIR
 70
    0
  9
$PDMODE
 70
   34
  9
$PDSIZE
 40
0
  9
$PLINEWID
 40
0
  9
$SPLFRAME
 70
    0
  9
$SPLINETYPE
 70
    2
  9
$SPLINESEGS
 70
    8
  9
$HANDSEED
  5
20000
  9
$SURFTAB1
 70
    6
  9
$SURFTAB2
 70
    6
  9
$SURFTYPE
 70
    6
  9
$SURFU
 70
    6
  9
$SURFV
 70
    6
  9
$UCSBASE
  2

  9
$UCSNAME
  2

  9
$UCSORG
 10
0
 20
0
 30
0
  9
$UCSXDIR
 10
1
 20
0
 30
0
  9
$UCSYDIR
 10
0
 20
1
 30
0
  9
$UCSORTHOREF
  2

  9
$UCSORTHOVIEW
 70
    0
  9
$UCSORGTOP
 10
0
 20
0
 30
0
  9
$UCSORGBOTTOM
 10
0
 20
0
 30
0
  9
$UCSORGLEFT
 10
0
 20
0
 30
0
  9
$UCSORGRIGHT
 10
0
 20
0
 30
0
  9
$UCSORGFRONT
 10
0
 20
0
 30
0
  9
$UCSORGBACK
 10
0
 20
0
 30
0
  9
$PUCSBASE
  2

  9
$PUCSNAME
  2

  9
$PUCSORG
 10
0
 20
0
 30
0
  9
$PUCSXDIR
 10
1
 20
0
 30
0
  9
$PUCSYDIR
 10
0
 20
1
 30
0
  9
$PUCSORTHOREF
  2

  9
$PUCSORTHOVIEW
 70
    0
  9
$PUCSORGTOP
 10
0
 20
0
 30
0
  9
$PUCSORGBOTTOM
 10
0
 20
0
 30
0
  9
$PUCSORGLEFT
 10
0
 20
0
 30
0
  9
$PUCSORGRIGHT
 10
0
 20
0
 30
0
  9
$PUCSORGFRONT
 10
0
 20
0
 30
0
  9
$PUCSORGBACK
 10
0
 20
0
 30
0
  9
$USERI1
 70
    0
  9
$USERI2
 70
    0
  9
$USERI3
 70
    0
  9
$USERI4
 70
    0
  9
$USERI5
 70
    0
  9
$USERR1
 40
0
  9
$USERR2
 40
0
  9
$USERR3
 40
0
  9
$USERR4
 40
0
  9
$USERR5
 40
0
  9
$WORLDVIEW
 70
    1
  9
$SHADEDGE
 70
    3
  9
$SHADEDIF
 70
   70
  9
$TILEMODE
 70
    1
  9
$MAXACTVP
 70
   64
  9
$PINSBASE
 10
0
 20
0
 30
0
  9
$PLIMCHECK
 70
    0
  9
$PEXTMIN
 10
0
 20
0
 30
0
  9
$PEXTMAX
 10
0
 20
0
 30
0
  9
$GRIDMODE
 70
    1
  9
$SNAPSTYLE
 70
    0
  9
$PLIMMIN
 10
0
 20
0
  9
$PLIMMAX
 10
210
 20
297
  9
$UNITMODE
 70
    0
  9
$VISRETAIN
 70
    1
  9
$PLINEGEN
 70
    0
  9
$PSLTSCALE
 70
    1
  9
$TREEDEPTH
 70
 3020
  9
$CMLSTYLE
  2
Standard
  9
$CMLJUST
 70
    0
  9
$CMLSCALE
 40
20
  9
$PROXYGRAPHICS
 70
    1
  9
$MEASUREMENT
 70
    1
  9
$CELWEIGHT
370
   -1
  9
$ENDCAPS
280
    0
  9
$JOINSTYLE
280
    0
  9
$LWDISPLAY
290
    0
  9
$INSUNITS
 70
    4
  9
$HYPERLINKBASE
  1

  9
$STYLESHEET
  1

  9
$XEDIT
290
    1
  9
$CEPSNTYPE
380
    0
  9
$PSTYLEMODE
290
    1
  9
$EXTNAMES
290
    1
  9
$PSVPSCALE
 40
1
  9
$OLESTARTUP
290
    0
  9
$SORTENTS
280
  127
  9
$INDEXCTL
280
    0
  9
$HIDETEXT
280
    1
  9
$XCLIPFRAME
290
    0
  9
$HALOGAP
280
    0
  9
$OBSCOLOR
 70
  257
  9
$OBSLTYPE
280
    0
  9
$INTERSECTIONDISPLAY
280
    0
  9
$INTERSECTIONCOLOR
 70
  257
  9
$DIMASSOC
280
    1
  9
$PROJECTNAME
  1

  9
$CAMERADISPLAY
290
    0
  9
$LENSLENGTH
 40
50
  9
$CAMERAHEIGHT
 40
0
  9
$STEPSPERSEC
 40
2
  9
$STEPSIZE
 40
50
  9
$3DDWFPREC
 40
2
  9
$PSOLWIDTH
 40
5
  9
$PSOLHEIGHT
 40
80
  9
$LOFTANG1
 40
1.570796326794897
  9
$LOFTANG2
 40
1.570796326794897
  9
$LOFTMAG1
 40
0
  9
$LOFTMAG2
 40
0
  9
$LOFTPARAM
 70
    7
  9
$LOFTNORMALS
280
    1
  9
$LATITUDE
 40
1
  9
$LONGITUDE
 40
1
  9
$NORTHDIRECTION
 40
0
  9
$TIMEZONE
 70
-8000
  9
$LIGHTGLYPHDISPLAY
280
    1
  9
$TILEMODELIGHTSYNCH
280
    1
  9
$SOLIDHIST
280
    1
  9
$SHOWHIST
280
    1
  9
$DWFFRAME
280
    2
  9
$DGNFRAME
280
    0
  9
$REALWORLDSCALE
290
    1
  9
$INTERFERECOLOR
 62
    1
  9
$CSHADOW
280
    0
  9
$SHADOWPLANELOCATION
 40
0
  0
ENDSEC
  0
SECTION
  2
CLASSES
  0
ENDSEC
  0
SECTION
  2
TABLES
  0
TABLE
  2
VPORT
  5
8
330
0
100
AcDbSymbolTable
 70
    1
  0
VPORT
  5
31
330
2
100
AcDbSymbolTableRecord
100
AcDbViewportTableRecord
  2
*ACTIVE
 70
    0
 10
0
 20
0
 11
1
 21
1
 12
712.049112896724
 22
124.7983733051401
 13
0
 23
0
 14
10
 24
10
 15
10
 25
10
 16
0
 26
0
 36
1
 17
0
 27
0
 37
0
 40
318.2206696442502
 41
2.715648854961832
 42
50
 43
0
 44
0
 50
0
 51
0
 71
    0
 72
  100
 73
    1
 74
    3
 75
    0
 76
    1
 77
    0
 78
    0
281
    0
 65
    1
110
0
120
0
130
0
111
1
121
0
131
0
112
0
122
1
132
0
 79
    0
146
0
348
10020
 60
    7
 61
    5
292
1
282
    1
141
0
142
0
 63
  250
421
3358443
  0
ENDTAB
  0
TABLE
  2
LTYPE
  5
5
330
0
100
AcDbSymbolTable
 70
    4
  0
LTYPE
  5
14
330
5
100
AcDbSymbolTableRecord
100
AcDbLinetypeTableRecord
  2
ByBlock
 70
    0
  3

 72
   65
 73
    0
 40
0
  0
LTYPE
  5
15
330
5
100
AcDbSymbolTableRecord
100
AcDbLinetypeTableRecord
  2
ByLayer
 70
    0
  3

 72
   65
 73
    0
 40
0
  0
LTYPE
  5
16
330
5
100
AcDbSymbolTableRecord
100
AcDbLinetypeTableRecord
  2
Continuous
 70
    0
  3
Solid line
 72
   65
 73
    0
 40
0
  0
LTYPE
  5
32
330
5
100
AcDbSymbolTableRecord
100
AcDbLinetypeTableRecord
  2
DOT
 70
    0
  3
Dot . . . . . . . . . . . . . . . . . . . . . .
 72
   65
 73
    2
 40
6.35
 49
0
 74
    0
 49
-6.35
 74
    0
  0
LTYPE
  5
33
330
5
100
AcDbSymbolTableRecord
100
AcDbLinetypeTableRecord
  2
DOTTINY
 70
    0
  3
Dot (.15x) .....................................
 72
   65
 73
    2
 40
0.9525
 49
0
 74
    0
 49
-0.9525
 74
    0
  0
LTYPE
  5
34
330
5
100
AcDbSymbolTableRecord
100
AcDbLinetypeTableRecord
  2
DOT2
 70
    0
  3
Dot (.5x) .....................................
 72
   65
 73
    2
 40
3.175
 49
0
 74
    0
 49
-3.175
 74
    0
  0
LTYPE
  5
35
330
5
100
AcDbSymbolTableRecord
100
AcDbLinetypeTableRecord
  2
DOTX2
 70
    0
  3
Dot (2x) .  .  .  .  .  .  .  .  .  .  .  .  .
 72
   65
 73
    2
 40
12.7
 49
0
 74
    0
 49
-12.7
 74
    0
  0
LTYPE
  5
36
330
5
100
AcDbSymbolTableRecord
100
AcDbLinetypeTableRecord
  2
DASHED
 70
    0
  3
Dashed _ _ _ _ _ _ _ _ _ _ _ _ _ _ _ _ _
 72
   65
 73
    2
 40
19.05
 49
12.7
 74
    0
 49
-6.35
 74
    0
  0
LTYPE
  5
37
330
5
100
AcDbSymbolTableRecord
100
AcDbLinetypeTableRecord
  2
DASHEDTINY
 70
    0
  3
Dashed (.15x) _ _ _ _ _ _ _ _ _ _ _ _ _ _ _ _ _
 72
   65
 73
    2
 40
2.8575
 49
1.905
 74
    0
 49
-0.9525
 74
    0
  0
LTYPE
  5
38
330
5
100
AcDbSymbolTableRecord
100
AcDbLinetypeTableRecord
  2
DASHED2
 70
    0
  3
Dashed (.5x) _ _ _ _ _ _ _ _ _ _ _ _ _ _ _ _ _
 72
   65
 73
    2
 40
9.524999999999999
 49
6.35
 74
    0
 49
-3.175
 74
    0
  0
LTYPE
  5
39
330
5
100
AcDbSymbolTableRecord
100
AcDbLinetypeTableRecord
  2
DASHEDX2
 70
    0
  3
Dashed (2x) ____  ____  ____  ____  ____  ___
 72
   65
 73
    2
 40
38.09999999999999
 49
25.4
 74
    0
 49
-12.7
 74
    0
  0
LTYPE
  5
3A
330
5
100
AcDbSymbolTableRecord
100
AcDbLinetypeTableRecord
  2
DASHDOT
 70
    0
  3
Dash dot __ . __ . __ . __ . __ . __ . __ . __
 72
   65
 73
    4
 40
25.4
 49
12.7
 74
    0
 49
-6.35
 74
    0
 49
0
 74
    0
 49
-6.35
 74
    0
  0
LTYPE
  5
3B
330
5
100
AcDbSymbolTableRecord
100
AcDbLinetypeTableRecord
  2
DASHDOTTINY
 70
    0
  3
Dash dot (.15x) _._._._._._._._._._._._._._._.
 72
   65
 73
    4
 40
3.81
 49
1.905
 74
    0
 49
-0.9525
 74
    0
 49
0
 74
    0
 49
-0.9525
 74
    0
  0
LTYPE
  5
3C
330
5
100
AcDbSymbolTableRecord
100
AcDbLinetypeTableRecord
  2
DASHDOT2
 70
    0
  3
Dash dot (.5x) _._._._._._._._._._._._._._._.
 72
   65
 73
    4
 40
12.7
 49
6.35
 74
    0
 49
-3.175
 74
    0
 49
0
 74
    0
 49
-3.175
 74
    0
  0
LTYPE
  5
3D
330
5
100
AcDbSymbolTableRecord
100
AcDbLinetypeTableRecord
  2
DASHDOTX2
 70
    0
  3
Dash dot (2x) ____  .  ____  .  ____  .  ___
 72
   65
 73
    4
 40
50.8
 49
25.4
 74
    0
 49
-12.7
 74
    0
 49
0
 74
    0
 49
-12.7
 74
    0
  0
LTYPE
  5
3E
330
5
100
AcDbSymbolTableRecord
100
AcDbLinetypeTableRecord
  2
DIVIDE
 70
    0
  3
Divide ____ . . ____ . . ____ . . ____ . . ____
 72
   65
 73
    6
 40
31.75
 49
12.7
 74
    0
 49
-6.35
 74
    0
 49
0
 74
    0
 49
-6.35
 74
    0
 49
0
 74
    0
 49
-6.35
 74
    0
  0
LTYPE
  5
3F
330
5
100
AcDbSymbolTableRecord
100
AcDbLinetypeTableRecord
  2
DIVIDETINY
 70
    0
  3
Divide (.15x) __..__..__..__..__..__..__..__.._
 72
   65
 73
    6
 40
4.7625
 49
1.905
 74
    0
 49
-0.9525
 74
    0
 49
0
 74
    0
 49
-0.9525
 74
    0
 49
0
 74
    0
 49
-0.9525
 74
    0
  0
LTYPE
  5
40
330
5
100
AcDbSymbolTableRecord
100
AcDbLinetypeTableRecord
  2
DIVIDE2
 70
    0
  3
Divide (.5x) __..__..__..__..__..__..__..__.._
 72
   65
 73
    6
 40
15.875
 49
6.35
 74
    0
 49
-3.175
 74
    0
 49
0
 74
    0
 49
-3.175
 74
    0
 49
0
 74
    0
 49
-3.175
 74
    0
  0
LTYPE
  5
41
330
5
100
AcDbSymbolTableRecord
100
AcDbLinetypeTableRecord
  2
DIVIDEX2
 70
    0
  3
Divide (2x) ________  .  .  ________  .  .  _
 72
   65
 73
    6
 40
63.5
 49
25.4
 74
    0
 49
-12.7
 74
    0
 49
0
 74
    0
 49
-12.7
 74
    0
 49
0
 74
    0
 49
-12.7
 74
    0
  0
LTYPE
  5
42
330
5
100
AcDbSymbolTableRecord
100
AcDbLinetypeTableRecord
  2
BORDER
 70
    0
  3
Border __ __ . __ __ . __ __ . __ __ . __ __ .
 72
   65
 73
    6
 40
44.45
 49
12.7
 74
    0
 49
-6.35
 74
    0
 49
12.7
 74
    0
 49
-6.35
 74
    0
 49
0
 74
    0
 49
-6.35
 74
    0
  0
LTYPE
  5
43
330
5
100
AcDbSymbolTableRecord
100
AcDbLinetypeTableRecord
  2
BORDERTINY
 70
    0
  3
Border (.15x) __.__.__.__.__.__.__.__.__.__.__.
 72
   65
 73
    6
 40
6.6675
 49
1.905
 74
    0
 49
-0.9525
 74
    0
 49
1.905
 74
    0
 49
-0.9525
 74
    0
 49
0
 74
    0
 49
-0.9525
 74
    0
  0
LTYPE
  5
44
330
5
100
AcDbSymbolTableRecord
100
AcDbLinetypeTableRecord
  2
BORDER2
 70
    0
  3
Border (.5x) __.__.__.__.__.__.__.__.__.__.__.
 72
   65
 73
    6
 40
22.225
 49
6.35
 74
    0
 49
-3.175
 74
    0
 49
6.35
 74
    0
 49
-3.175
 74
    0
 49
0
 74
    0
 49
-3.175
 74
    0
  0
LTYPE
  5
45
330
5
100
AcDbSymbolTableRecord
100
AcDbLinetypeTableRecord
  2
BORDERX2
 70
    0
  3
Border (2x) ____  ____  .  ____  ____  .  ___
 72
   65
 73
    6
 40
88.89999999999999
 49
25.4
 74
    0
 49
-12.7
 74
    0
 49
25.4
 74
    0
 49
-12.7
 74
    0
 49
0
 74
    0
 49
-12.7
 74
    0
  0
LTYPE
  5
46
330
5
100
AcDbSymbolTableRecord
100
AcDbLinetypeTableRecord
  2
CENTER
 70
    0
  3
Center ____ _ ____ _ ____ _ ____ _ ____ _ ____
 72
   65
 73
    4
 40
50.8
 49
31.75
 74
    0
 49
-6.35
 74
    0
 49
6.35
 74
    0
 49
-6.35
 74
    0
  0
LTYPE
  5
47
330
5
100
AcDbSymbolTableRecord
100
AcDbLinetypeTableRecord
  2
CENTERTINY
 70
    0
  3
Center (.15x) ___ _ ___ _ ___ _ ___ _ ___ _ ___
 72
   65
 73
    4
 40
7.619999999999999
 49
4.7625
 74
    0
 49
-0.9525
 74
    0
 49
0.9525
 74
    0
 49
-0.9525
 74
    0
  0
LTYPE
  5
48
330
5
100
AcDbSymbolTableRecord
100
AcDbLinetypeTableRecord
  2
CENTER2
 70
    0
  3
Center (.5x) ___ _ ___ _ ___ _ ___ _ ___ _ ___
 72
   65
 73
    4
 40
28.575
 49
19.05
 74
    0
 49
-3.175
 74
    0
 49
3.175
 74
    0
 49
-3.175
 74
    0
  0
LTYPE
  5
49
330
5
100
AcDbSymbolTableRecord
100
AcDbLinetypeTableRecord
  2
CENTERX2
 70
    0
  3
Center (2x) ________  __  ________  __  _____
 72
   65
 73
    4
 40
101.6
 49
63.5
 74
    0
 49
-12.7
 74
    0
 49
12.7
 74
    0
 49
-12.7
 74
    0
  0
ENDTAB
  0
TABLE
  2
LAYER
  5
2
330
0
100
AcDbSymbolTable
 70
    1
  0
LAYER
  5
10
330
2
100
AcDbSymbolTableRecord
100
AcDbLayerTableRecord
  2
0
 70
    0
 62
    7
  6
CONTINUOUS
370
    0
390
F
  0
ENDTAB
  0
TABLE
  2
STYLE
  5
3
330
0
100
AcDbSymbolTable
 70
    3
  0
STYLE
  5
4A
330
2
100
AcDbSymbolTableRecord
100
AcDbTextStyleTableRecord
  2
iso3098_i
 70
    0
 40
0
 41
1
 50
0
 71
    0
 42
1
  3
iso3098_i
  4

  0
STYLE
  5
4B
330
2
100
AcDbSymbolTableRecord
100
AcDbTextStyleTableRecord
  2
Standard
 70
    0
 40
0
 41
1
 50
0
 71
    0
 42
1
  3
txt
  4

  0
ENDTAB
  0
TABLE
  2
VIEW
  5
6
330
0
100
AcDbSymbolTable
 70
    0
  0
ENDTAB
  0
TABLE
  2
UCS
  5
7
330
0
100
AcDbSymbolTable
 70
    0
  0
ENDTAB
  0
TABLE
  2
APPID
  5
9
330
0
100
AcDbSymbolTable
 70
    1
  0
APPID
  5
12
330
9
100
AcDbSymbolTableRecord
100
AcDbRegAppTableRecord
  2
ACAD
 70
    0
  0
APPID
  5
4C
330
9
100
AcDbSymbolTableRecord
100
AcDbRegAppTableRecord
  2
LibreCad
 70
    0
  0
ENDTAB
  0
TABLE
  2
DIMSTYLE
  5
A
330
0
100
AcDbSymbolTable
 70
    1
100
AcDbDimStyleTable
 71
    1
  0
DIMSTYLE
105
4D
330
A
100
AcDbSymbolTableRecord
100
AcDbDimStyleTableRecord
  2
Standard
 70
    0
 40
2.5
 41
2.5
 42
0.625
 43
0.38
 44
1.25
 45
0
 46
0
 47
0
 48
0
 49
1
140
2.5
141
0.09
142
0
143
25.4
144
1
145
0
146
1
147
0.625
148
0
 71
    0
 72
    0
 73
    0
 74
    1
 75
    0
 76
    0
 77
    0
 78
    8
 79
    0
170
    0
171
    2
172
    0
173
    0
174
    0
175
    0
176
    0
177
    0
178
    0
179
    0
271
    2
272
    4
273
    2
274
    2
275
    0
276
    0
277
    2
278
   44
279
    0
280
    0
281
    0
282
    0
283
    1
284
    0
285
    0
286
    0
288
    0
289
    3
340
STANDARD
341

371
   -2
372
   -2
  0
ENDTAB
  0
TABLE
  2
BLOCK_RECORD
  5
1
330
0
100
AcDbSymbolTable
 70
    2
  0
BLOCK_RECORD
  5
1F
330
1
100
AcDbSymbolTableRecord
100
AcDbBlockTableRecord
  2
*Model_Space
 70
    0
280
    1
281
    0
  0
BLOCK_RECORD
  5
1E
330
1
100
AcDbSymbolTableRecord
100
AcDbBlockTableRecord
  2
*Paper_Space
 70
    0
280
    1
281
    0
  0
BLOCK_RECORD
  5
4E
330
1
100
AcDbSymbolTableRecord
100
AcDbBlockTableRecord
  2
*D3
 70
    0
280
    1
281
    0
  0
BLOCK_RECORD
  5
51
330
1
100
AcDbSymbolTableRecord
100
AcDbBlockTableRecord
  2
*D5
 70
    0
280
    1
281
    0
  0
BLOCK_RECORD
  5
54
330
1
100
AcDbSymbolTableRecord
100
AcDbBlockTableRecord
  2
*D2
 70
    0
280
    1
281
    0
  0
BLOCK_RECORD
  5
57
330
1
100
AcDbSymbolTableRecord
100
AcDbBlockTableRecord
  2
*D1
 70
    0
280
    1
281
    0
  0
BLOCK_RECORD
  5
5A
330
1
100
AcDbSymbolTableRecord
100
AcDbBlockTableRecord
  2
*D4
 70
    0
280
    1
281
    0
  0
ENDTAB
  0
ENDSEC
  0
SECTION
  2
BLOCKS
  0
BLOCK
  5
20
330
1F
100
AcDbEntity
  8
0
100
AcDbBlockBegin
  2
*Model_Space
 70
    0
 10
0
 20
0
 30
0
  3
*Model_Space
  1

  0
ENDBLK
  5
21
330
1F
100
AcDbEntity
  8
0
100
AcDbBlockEnd
  0
BLOCK
  5
1C
330
1B
100
AcDbEntity
  8
0
100
AcDbBlockBegin
  2
*Paper_Space
 70
    0
 10
0
 20
0
 30
0
  3
*Paper_Space
  1

  0
ENDBLK
  5
1D
330
1F
100
AcDbEntity
  8
0
100
AcDbBlockEnd
  0
BLOCK
  5
4F
330
4E
100
AcDbEntity
  8
0
100
AcDbBlockBegin
  2
*D3
 70
    1
 10
0
 20
0
  3
*D3
  1

  0
LINE
  5
5D
100
AcDbEntity
  8
0
  6
ByBlock
 62
    0
370
   -2
100
AcDbLine
 10
287.6932400627411
 20
799.7882866778712
 11
287.7423936368243
 21
802.295118956106
  0
LINE
  5
5E
100
AcDbEntity
  8
0
  6
ByBlock
 62
    0
370
   -2
100
AcDbLine
 10
364.5036748453509
 20
798.2821997213493
 11
364.5528284194341
 21
800.7890319995842
  0
LINE
  5
5F
100
AcDbEntity
  8
0
  6
ByBlock
 62
    0
370
   -2
100
AcDbLine
 10
287.681130902654
 20
799.1707195134287
 11
364.4915656852638
 21
797.6646325569069
  0
SOLID
  5
60
100
AcDbEntity
  8
0
  6
ByBlock
 62
    0
370
   -2
100
AcDbTrace
 10
287.681130902654
 20
799.1707195134287
 30
0
 11
293.9503319770711
 21
800.0887056872808
 31
0
 12
293.9095275989459
 22
798.007682402896
 32
0
 13
293.9095275989459
 23
798.007682402896
 33
0
  0
SOLID
  5
61
100
AcDbEntity
  8
0
  6
ByBlock
 62
    0
370
   -2
100
AcDbTrace
 10
364.4915656852638
 20
797.6646325569069
 30
0
 11
358.2223646108467
 21
796.7466463830548
 31
0
 12
358.2631689889719
 22
798.8276696674396
 32
0
 13
358.2631689889719
 23
798.8276696674396
 33
0
  0
MTEXT
  5
62
100
AcDbEntity
  8
0
  6
CONTINUOUS
 62
    0
370
   -2
100
AcDbMText
 10
326.1782423952141
 20
803.1042751991837
 30
0
 40
6.25
 41
19.79166666666744
 71
    5
 72
    1
  1
76,83
  7
STANDARD
210
0
220
0
230
1
 50
358.8766972859245
 73
    2
 44
1
  0
ENDBLK
  5
50
330
4E
100
AcDbEntity
  8
0
100
AcDbBlockEnd
  0
BLOCK
  5
52
330
51
100
AcDbEntity
  8
0
100
AcDbBlockBegin
  2
*D5
 70
    1
 10
0
 20
0
  3
*D5
  1

  0
LINE
  5
63
100
AcDbEntity
  8
0
  6
ByBlock
 62
    0
370
   -2
100
AcDbLine
 10
424.7729347826144
 20
682.257391304357
 11
459.469347826093
 21
682.2573913043572
  0
LINE
  5
64
100
AcDbEntity
  8
0
  6
ByBlock
 62
    0
370
   -2
100
AcDbLine
 10
424.7729347826144
 20
212.3582608695681
 11
459.469347826093
 21
212.3582608695682
  0
LINE
  5
65
100
AcDbEntity
  8
0
  6
ByBlock
 62
    0
370
   -2
100
AcDbLine
 10
456.344347826093
 20
682.2573913043572
 11
456.344347826093
 21
212.3582608695682
  0
SOLID
  5
66
100
AcDbEntity
  8
0
  6
ByBlock
 62
    0
370
   -2
100
AcDbTrace
 10
456.344347826093
 20
682.2573913043572
 30
0
 11
457.3850594705251
 21
676.0073913043572
 31
0
 12
455.3036361816609
 22
676.0073913043572
 32
0
 13
455.3036361816609
 23
676.0073913043572
 33
0
  0
SOLID
  5
67
100
AcDbEntity
  8
0
  6
ByBlock
 62
    0
370
   -2
100
AcDbTrace
 10
456.344347826093
 20
212.3582608695682
 30
0
 11
455.3036361816609
 21
218.6082608695682
 31
0
 12
457.3850594705251
 22
218.6082608695682
 32
0
 13
457.3850594705251
 23
218.6082608695682
 33
0
  0
MTEXT
  5
68
100
AcDbEntity
  8
0
  6
CONTINUOUS
 62
    0
370
   -2
100
AcDbMText
 10
451.656847826093
 20
447.3078260869626
 30
0
 40
6.25
 41
20.4861111111115
 71
    5
 72
    1
  1
469,9
  7
STANDARD
210
0
220
0
230
1
 50
90
 73
    2
 44
1
  0
ENDBLK
  5
53
330
51
100
AcDbEntity
  8
0
100
AcDbBlockEnd
  0
BLOCK
  5
55
330
54
100
AcDbEntity
  8
0
100
AcDbBlockBegin
  2
*D2
 70
    1
 10
0
 20
0
  3
*D2
  1

  0
LINE
  5
69
100
AcDbEntity
  8
0
  6
ByBlock
 62
    0
370
   -2
100
AcDbLine
 10
286.1565217391343
 20
760.5175000000103
 11
286.1565217391343
 21
757.4489130434886
  0
LINE
  5
6A
100
AcDbEntity
  8
0
  6
ByBlock
 62
    0
370
   -2
100
AcDbLine
 10
307.2417391304389
 20
760.5175000000103
 11
307.2417391304389
 21
757.4489130434886
  0
LINE
  5
6B
100
AcDbEntity
  8
0
  6
ByBlock
 62
    0
370
   -2
100
AcDbLine
 10
286.1565217391343
 20
760.5739130434886
 11
307.2417391304389
 21
760.5739130434886
  0
SOLID
  5
6C
100
AcDbEntity
  8
0
  6
ByBlock
 62
    0
370
   -2
100
AcDbTrace
 10
286.1565217391343
 20
760.5739130434886
 30
0
 11
292.4065217391343
 21
761.6146246879207
 31
0
 12
292.4065217391343
 22
759.5332013990565
 32
0
 13
292.4065217391343
 23
759.5332013990565
 33
0
  0
SOLID
  5
6D
100
AcDbEntity
  8
0
  6
ByBlock
 62
    0
370
   -2
100
AcDbTrace
 10
307.2417391304389
 20
760.5739130434886
 30
0
 11
300.9917391304389
 21
759.5332013990565
 31
0
 12
300.9917391304389
 22
761.6146246879207
 32
0
 13
300.9917391304389
 23
761.6146246879207
 33
0
  0
MTEXT
  5
6E
100
AcDbEntity
  8
0
  6
CONTINUOUS
 62
    0
370
   -2
100
AcDbMText
 10
296.6991304347866
 20
765.2614130434886
 30
0
 40
6.25
 41
18.40277777777778
 71
    5
 72
    1
  1
21,09
  7
STANDARD
210
0
220
0
230
1
 50
0
 73
    2
 44
1
  0
ENDBLK
  5
56
330
54
100
AcDbEntity
  8
0
100
AcDbBlockEnd
  0
BLOCK
  5
58
330
57
100
AcDbEntity
  8
0
100
AcDbBlockBegin
  2
*D1
 70
    1
 10
0
 20
0
  3
*D1
  1

  0
LINE
  5
6F
100
AcDbEntity
  8
0
  6
ByBlock
 62
    0
370
   -2
100
AcDbLine
 10
242.4236120343666
 20
716.8885387552235
 11
235.639065550828
 21
716.8500993983764
  0
LINE
  5
70
100
AcDbEntity
  8
0
  6
ByBlock
 62
    0
370
   -2
100
AcDbLine
 10
245.4357859474102
 20
185.2398431030424
 11
238.6512394638715
 21
185.2014037461954
  0
LINE
  5
71
100
AcDbEntity
  8
0
  6
ByBlock
 62
    0
370
   -2
100
AcDbLine
 10
238.7640153951447
 20
716.8678044966445
 11
241.7761893081883
 21
185.2191088444633
  0
SOLID
  5
72
100
AcDbEntity
  8
0
  6
ByBlock
 62
    0
370
   -2
100
AcDbTrace
 10
238.7640153951447
 20
716.8678044966445
 30
0
 11
239.8401205328798
 21
710.6238010966297
 31
0
 12
237.7587306504819
 22
710.6120085193922
 32
0
 13
237.7587306504819
 23
710.6120085193922
 33
0
  0
SOLID
  5
73
100
AcDbEntity
  8
0
  6
ByBlock
 62
    0
370
   -2
100
AcDbTrace
 10
241.7761893081883
 20
185.2191088444633
 30
0
 11
240.7000841704532
 21
191.4631122444782
 31
0
 12
242.7814740528511
 22
191.4749048217155
 32
0
 13
242.7814740528511
 23
191.4749048217155
 33
0
  0
MTEXT
  5
74
100
AcDbEntity
  8
0
  6
CONTINUOUS
 62
    0
370
   -2
100
AcDbMText
 10
244.9575271181417
 20
451.0700143179558
 30
0
 40
6.25
 41
23.26388888889043
 71
    5
 72
    1
  1
531,66
  7
STANDARD
210
0
220
0
230
1
 50
270.3246185068115
 73
    2
 44
1
  0
ENDBLK
  5
59
330
57
100
AcDbEntity
  8
0
100
AcDbBlockEnd
  0
BLOCK
  5
5B
330
5A
100
AcDbEntity
  8
0
100
AcDbBlockBegin
  2
*D4
 70
    1
 10
0
 20
0
  3
*D4
  1

  0
LINE
  5
75
100
AcDbEntity
  8
0
  6
ByBlock
 62
    0
370
   -2
100
AcDbLine
 10
313.3225000000042
 20
739.4886956521839
 11
314.8850000000042
 21
739.4886956521839
  0
LINE
  5
76
100
AcDbEntity
  8
0
  6
ByBlock
 62
    0
370
   -2
100
AcDbLine
 10
364.529456521744
 20
736.4765217391404
 11
366.091956521744
 21
736.4765217391404
  0
LINE
  5
77
100
AcDbEntity
  8
0
  6
ByBlock
 62
    0
370
   -2
100
AcDbLine
 10
311.7600000000042
 20
739.4886956521839
 11
362.966956521744
 21
736.4765217391404
  0
SOLID
  5
78
100
AcDbEntity
  8
0
  6
ByBlock
 62
    0
370
   -2
100
AcDbTrace
 10
311.7600000000042
 20
739.4886956521839
 30
0
 11
318.0603275243774
 21
740.1605987794885
 31
0
 12
317.9381021403184
 22
738.0827672504859
 32
0
 13
317.9381021403184
 23
738.0827672504859
 33
0
  0
SOLID
  5
79
100
AcDbEntity
  8
0
  6
ByBlock
 62
    0
370
   -2
100
AcDbTrace
 10
362.966956521744
 20
736.4765217391404
 30
0
 11
356.6666289973708
 21
735.8046186118357
 31
0
 12
356.7888543814298
 22
737.8824501408384
 32
0
 13
356.7888543814298
 23
737.8824501408384
 33
0
  0
MTEXT
  5
7A
100
AcDbEntity
  8
0
  6
CONTINUOUS
 62
    0
370
   -2
100
AcDbMText
 10
337.6387377387716
 20
742.6620198199198
 30
0
 40
6.25
 41
13.54166666666744
 71
    5
 72
    1
  1
51,3
  7
STANDARD
210
0
220
0
230
1
 50
356.6335393365702
 73
    2
 44
1
  0
ENDBLK
  5
5C
330
5A
100
AcDbEntity
  8
0
100
AcDbBlockEnd
  0
ENDSEC
  0
SECTION
  2
ENTITIES
  0
LWPOLYLINE
  5
7B
100
AcDbEntity
  8
0
  6
ByLayer
 62
  256
370
   -1
100
AcDbPolyline
 90
   12
 70
    1
 43
0
 10
31
 20
464
 10
31
 20
31
 10
640.463489
 20
31
 10
1249.926977
 20
31
 10
1250.213489
 20
53.74999999999875
 42
0.003096000000000255
 10
1250.324362999992
 20
71.07130499897727
 42
3.300000000016038e-05
 10
1250.341341000167
 20
190.3281249994472
 42
0.0001049999999999832
 10
1250.322872000164
 20
327.8703840003676
 42
6.799999999996259e-05
 10
1250.246394000016
 20
486.7500000001709
 10
1249.992789
 20
897
 10
640.496394
 20
897
 10
31
 20
897
  0
LWPOLYLINE
  5
7C
100
AcDbEntity
  8
0
  6
ByLayer
 62
  256
370
   -1
100
AcDbPolyline
 90
   22
 70
    1
 43
0
 10
1247
 20
543.5
 10
1247
 20
193
 10
952.160124
 20
193
 10
657.320248
 20
193
 10
656.662291
 20
168.2499999999997
 42
0.003570000000000005
 10
656.4078579999996
 20
155.161513999998
 42
0.0009980000000000071
 10
656.1969720000025
 20
134.687032999999
 42
0.001006999999999943
 10
656.0513050000036
 20
111.5255420000005
 42
0.00105900000000001
 10
656.0021670000024
 20
88.74840999999795
 10
656
 20
33.99682
 10
345.25
 20
34.24841
 10
34.5
 20
34.5
 10
34.24423200002639
 20
462.9999999999496
 42
-0.0001040000000000253
 10
34.18026200000895
 20
627.3939210001797
 42
-0.0001729999999998206
 10
34.20294599607587
 20
765.9953120042292
 42
-2.999999999984245e-06
 10
34.26773599535227
 20
891.6875490035209
 42
-0.0907970000000002
 10
34.46284700000001
 20
892.75
 42
-0.3109639999999869
 10
35.5404209998178
 20
893.4953220000025
 42
-1.999999999991111e-05
 10
156.3932369995922
 20
893.7492889999412
 42
-0.0004370000000000871
 10
325.7432849997427
 20
893.9504320003325
 42
-7.899999999997355e-05
 10
640.9686149998707
 20
894.0000000003492
 10
1247
 20
894
  0
LWPOLYLINE
  5
7D
100
AcDbEntity
  8
0
  6
ByLayer
 62
  256
370
   -1
100
AcDbPolyline
 90
    8
 70
    1
 43
0
 10
712
 20
184
 10
712
 20
176
 10
685
 20
176
 10
658
 20
176
 10
658
 20
184
 10
658
 20
192
 10
685
 20
192
 10
712
 20
192
  0
LWPOLYLINE
  5
7E
100
AcDbEntity
  8
0
  6
ByLayer
 62
  256
370
   -1
100
AcDbPolyline
 90
    8
 70
    1
 43
0
 10
854
 20
184
 10
854
 20
176
 10
783.5
 20
176
 10
713
 20
176
 10
713
 20
184
 10
713
 20
192
 10
783.5
 20
192
 10
854
 20
192
  0
LWPOLYLINE
  5
7F
100
AcDbEntity
  8
0
  6
ByLayer
 62
  256
370
   -1
100
AcDbPolyline
 90
    8
 70
    1
 43
0
 10
1082
 20
184
 10
1082
 20
176
 10
969
 20
176
 10
856
 20
176
 10
856
 20
184
 10
856
 20
192
 10
969
 20
192
 10
1082
 20
192
  0
LWPOLYLINE
  5
80
100
AcDbEntity
  8
0
  6
ByLayer
 62
  256
370
   -1
100
AcDbPolyline
 90
    8
 70
    1
 43
0
 10
1247
 20
184
 10
1247
 20
176
 10
1165
 20
176
 10
1083
 20
176
 10
1083
 20
184
 10
1083
 20
192
 10
1165
 20
192
 10
1247
 20
192
  0
LWPOLYLINE
  5
81
100
AcDbEntity
  8
0
  6
ByLayer
 62
  256
370
   -1
100
AcDbPolyline
 90
    8
 70
    1
 43
0
 10
854
 20
167.5
 10
854
 20
160
 10
783.5
 20
160
 10
713
 20
160
 10
713
 20
167.5
 10
713
 20
175
 10
783.5
 20
175
 10
854
 20
175
  0
LWPOLYLINE
  5
82
100
AcDbEntity
  8
0
  6
ByLayer
 62
  256
370
   -1
100
AcDbPolyline
 90
    8
 70
    1
 43
0
 10
1082
 20
167.5
 10
1082
 20
160
 10
969
 20
160
 10
856
 20
160
 10
856
 20
167.5
 10
856
 20
175
 10
969
 20
175
 10
1082
 20
175
  0
LWPOLYLINE
  5
83
100
AcDbEntity
  8
0
  6
ByLayer
 62
  256
370
   -1
100
AcDbPolyline
 90
    8
 70
    1
 43
0
 10
1247
 20
167.5
 10
1247
 20
160
 10
1165
 20
160
 10
1083
 20
160
 10
1083
 20
167.5
 10
1083
 20
175
 10
1165
 20
175
 10
1247
 20
175
  0
LWPOLYLINE
  5
84
100
AcDbEntity
  8
0
  6
ByLayer
 62
  256
370
   -1
100
AcDbPolyline
 90
   14
 70
    1
 43
0
 10
781
 20
149
 10
781
 20
141
 10
758
 20
141
 10
735
 20
141
 10
735
 20
148.333333
 42
-0.008468000000000199
 10
735.048411
 20
151.19147
 42
-0.01231800000000004
 10
735.195833
 20
153.708333
 42
-0.007905999999999812
 10
735.402069
 20
155.785689
 42
-0.1692469999999845
 10
735.666667
 20
156.333333
 42
-0.1902310000000132
 10
736.290556
 20
156.6040719999999
 42
-0.00112100000000004
 10
742.6979169999998
 20
156.8041669999997
 42
-0.00445199999999998
 10
750.057264
 20
156.9519160000003
 42
-0.002792999999999916
 10
758.666667
 20
157.0000000000001
 10
781
 20
157
  0
LWPOLYLINE
  5
85
100
AcDbEntity
  8
0
  6
ByLayer
 62
  256
370
   -1
100
AcDbPolyline
 90
   14
 70
    1
 43
0
 10
1008
 20
149
 10
1008
 20
141
 10
895
 20
141
 10
782
 20
141
 10
782
 20
148.333333
 42
-0.008468000000000199
 10
782.048411
 20
151.19147
 42
-0.01231800000000004
 10
782.195833
 20
153.708333
 42
-0.007905999999999812
 10
782.402069
 20
155.785689
 42
-0.1692469999999845
 10
782.666667
 20
156.333333
 42
-0.1973289999999992
 10
783.3227029999696
 20
156.607416999992
 42
-4.800000000005261e-05
 10
816.1354169999664
 20
156.804166999993
 42
-0.0009189999999998996
 10
852.5468849999947
 20
156.9520580000026
 42
-0.0005559999999999144
 10
895.6666669999951
 20
157
 10
1008
 20
157
  0
LWPOLYLINE
  5
86
100
AcDbEntity
  8
0
  6
ByLayer
 62
  256
370
   -1
100
AcDbPolyline
 90
    8
 70
    1
 43
0
 10
732
 20
117.5
 10
732
 20
79
 10
695.5
 20
79
 10
659
 20
79
 10
659
 20
117.5
 10
659
 20
156
 10
695.5
 20
156
 10
732
 20
156
  0
LWPOLYLINE
  5
87
100
AcDbEntity
  8
0
  6
ByLayer
 62
  256
370
   -1
100
AcDbPolyline
 90
   14
 70
    1
 43
0
 10
781
 20
133
 10
781
 20
126
 10
758
 20
126
 10
735
 20
126
 10
735
 20
132.333333
 42
-0.009793999999999935
 10
735.0484800000002
 20
134.80813
 42
-0.01394500000000001
 10
735.1958330000001
 20
137.002083
 42
-0.009870999999999975
 10
735.403093
 20
138.801233
 42
-0.1641930000000031
 10
735.666667
 20
139.333333
 42
-0.1902310000000021
 10
736.2905559999998
 20
139.6040719999999
 42
-0.00112100000000004
 10
742.6979169999996
 20
139.804167
 42
-0.00445199999999998
 10
750.0572639999998
 20
139.9519160000002
 42
-0.002792999999999916
 10
758.6666669999997
 20
140.0000000000001
 10
781
 20
140
  0
LWPOLYLINE
  5
88
100
AcDbEntity
  8
0
  6
ByLayer
 62
  256
370
   -1
100
AcDbPolyline
 90
   14
 70
    1
 43
0
 10
1008
 20
125
 10
1008
 20
110
 10
895.038671
 20
110
 10
782.077341
 20
110
 10
782.096947
 20
124.1897850000001
 42
-0.003286999999999948
 10
782.1406849999998
 20
129.6867160000002
 42
-0.005035999999999931
 10
782.257886
 20
134.4493210000001
 42
-0.001900999999999962
 10
782.415018
 20
138.5310489999999
 42
-0.1285249999999945
 10
782.617294
 20
139.189785
 42
-0.2579559999999883
 10
783.2095509999622
 20
139.5228729999508
 42
-5.900000000010117e-05
 10
816.0004799999853
 20
139.7619989999803
 42
-0.001117999999999997
 10
852.4092949999955
 20
139.9417459999968
 42
-0.0006750000000000266
 10
895.5590169999961
 20
139.9999999999982
 10
1008
 20
140
  0
LWPOLYLINE
  5
89
100
AcDbEntity
  8
0
  6
ByLayer
 62
  256
370
   -1
100
AcDbPolyline
 90
    8
 70
    1
 43
0
 10
781
 20
117
 10
781
 20
110
 10
758
 20
110
 10
735
 20
110
 10
735
 20
117
 10
735
 20
124
 10
758
 20
124
 10
781
 20
124
  0
LWPOLYLINE
  5
8A
100
AcDbEntity
  8
0
  6
ByLayer
 62
  256
370
   -1
100
AcDbPolyline
 90
    8
 70
    1
 43
0
 10
1247
 20
97.5
 10
1247
 20
78
 10
1221
 20
78
 10
1195
 20
78
 10
1195
 20
97.5
 10
1195
 20
117
 10
1221
 20
117
 10
1247
 20
117
  0
LWPOLYLINE
  5
8B
100
AcDbEntity
  8
0
  6
ByLayer
 62
  256
370
   -1
100
AcDbPolyline
 90
    8
 70
    1
 43
0
 10
781
 20
101.481226
 10
781
 20
93.962451
 10
758.25
 20
94.23122600000001
 10
735.5
 20
94.5
 10
735.20619
 20
101.75
 10
734.912381
 20
109
 10
757.95619
 20
109
 10
781
 20
109
  0
LWPOLYLINE
  5
8C
100
AcDbEntity
  8
0
  6
ByLayer
 62
  256
370
   -1
100
AcDbPolyline
 90
    8
 70
    1
 43
0
 10
1008
 20
101.495709
 10
1008
 20
93.991418
 10
895.25
 20
94.24570900000001
 10
782.5
 20
94.5
 10
782.20619
 20
101.75
 10
781.912381
 20
109
 10
894.95619
 20
109
 10
1008
 20
109
  0
LWPOLYLINE
  5
8D
100
AcDbEntity
  8
0
  6
ByLayer
 62
  256
370
   -1
100
AcDbPolyline
 90
    8
 70
    1
 43
0
 10
1081
 20
102
 10
1081
 20
95
 10
1046
 20
95
 10
1011
 20
95
 10
1011
 20
102
 10
1011
 20
109
 10
1046
 20
109
 10
1081
 20
109
  0
LWPOLYLINE
  5
8E
100
AcDbEntity
  8
0
  6
ByLayer
 62
  256
370
   -1
100
AcDbPolyline
 90
    8
 70
    1
 43
0
 10
1192
 20
102
 10
1192
 20
95
 10
1137
 20
95
 10
1082
 20
95
 10
1082
 20
102
 10
1082
 20
109
 10
1137
 20
109
 10
1192
 20
109
  0
LWPOLYLINE
  5
8F
100
AcDbEntity
  8
0
  6
ByLayer
 62
  256
370
   -1
100
AcDbPolyline
 90
    8
 70
    1
 43
0
 10
781
 20
85.48122600000001
 10
781
 20
77.962451
 10
758.25
 20
78.23122600000001
 10
735.5
 20
78.5
 10
735.20619
 20
85.75
 10
734.912381
 20
93
 10
757.95619
 20
93
 10
781
 20
93
  0
LWPOLYLINE
  5
90
100
AcDbEntity
  8
0
  6
ByLayer
 62
  256
370
   -1
100
AcDbPolyline
 90
    8
 70
    1
 43
0
 10
1008
 20
85.5
 10
1008
 20
78
 10
895
 20
78
 10
782
 20
78
 10
782
 20
85.5
 10
782
 20
93
 10
895
 20
93
 10
1008
 20
93
  0
LWPOLYLINE
  5
91
100
AcDbEntity
  8
0
  6
ByLayer
 62
  256
370
   -1
100
AcDbPolyline
 90
    8
 70
    1
 43
0
 10
1081
 20
85.5
 10
1081
 20
78
 10
1046
 20
78
 10
1011
 20
78
 10
1011
 20
85.5
 10
1011
 20
93
 10
1046
 20
93
 10
1081
 20
93
  0
LWPOLYLINE
  5
92
100
AcDbEntity
  8
0
  6
ByLayer
 62
  256
370
   -1
100
AcDbPolyline
 90
    8
 70
    1
 43
0
 10
809
 20
55
 10
809
 20
35
 10
734
 20
35
 10
659
 20
35
 10
659
 20
55
 10
659
 20
75
 10
734
 20
75
 10
809
 20
75
  0
LWPOLYLINE
  5
93
100
AcDbEntity
  8
0
  6
ByLayer
 62
  256
370
   -1
100
AcDbPolyline
 90
    8
 70
    1
 43
0
 10
1008
 20
55
 10
1008
 20
35
 10
910
 20
35
 10
812
 20
35
 10
812
 20
55
 10
812
 20
75
 10
910
 20
75
 10
1008
 20
75
  0
LWPOLYLINE
  5
94
100
AcDbEntity
  8
0
  6
ByLayer
 62
  256
370
   -1
100
AcDbPolyline
 90
    8
 70
    1
 43
0
 10
1247
 20
55
 10
1247
 20
35
 10
1129
 20
35
 10
1011
 20
35
 10
1011
 20
55
 10
1011
 20
75
 10
1129
 20
75
 10
1247
 20
75
  0
MTEXT
  5
95
100
AcDbEntity
  8
0
  6
ByLayer
 62
  256
370
   -1
100
AcDbMText
 10
1194.753146975221
 20
136.6668972471656
 30
0
 40
8
 41
41.94666666666667
 71
    4
 72
    1
  1
SCALE
  7
iso3098_i
210
0
220
0
230
1
 50
0
 73
    2
 44
1
  0
MTEXT
  5
96
100
AcDbEntity
  8
0
  6
ByLayer
 62
  256
370
   -1
100
AcDbMText
 10
1170.306703904657
 20
166.7971108089355
 30
0
 40
8
 41
69.72444444444444
 71
    4
 72
    1
  1
MATERIAL
  7
iso3098_i
210
0
220
0
230
1
 50
0
 73
    2
 44
1
  0
MTEXT
  5
97
100
AcDbEntity
  8
0
  6
ByLayer
 62
  256
370
   -1
100
AcDbMText
 10
981.2086464175292
 20
182.4605114620916
 30
0
 40
8
 41
90.05333333333333
 71
    4
 72
    1
  1
ISO2768 - M
  7
iso3098_i
210
0
220
0
230
1
 50
0
 73
    2
 44
1
  0
MTEXT
  5
98
100
AcDbEntity
  8
0
  6
ByLayer
 62
  256
370
   -1
100
AcDbMText
 10
886.2869930557474
 20
166.9917975809124
 30
0
 40
8
 41
187.6622222222222
 71
    4
 72
    1
  1
Fabrication Tolerances
  7
iso3098_i
210
0
220
0
230
1
 50
0
 73
    2
 44
1
  0
MTEXT
  5
99
100
AcDbEntity
  8
0
  6
ByLayer
 62
  256
370
   -1
100
AcDbMText
 10
772.732570700727
 20
182.8120731412093
 30
0
 40
8
 41
69.76888888888888
 71
    4
 72
    1
  1
001 - 001
  7
iso3098_i
210
0
220
0
230
1
 50
0
 73
    2
 44
1
  0
LWPOLYLINE
  5
9A
100
AcDbEntity
  8
0
  6
ByLayer
 62
  256
370
   -1
100
AcDbPolyline
 90
    4
 70
    1
 43
0
 10
712.0306228220041
 20
159.9606979472644
 10
657.9967896288971
 20
159.9606979472644
 10
657.9967896288971
 20
174.8606773063779
 10
712.0306228220041
 20
174.8606773063779
  0
MTEXT
  5
9B
100
AcDbEntity
  8
0
  6
ByLayer
 62
  256
370
   -1
100
AcDbMText
 10
662.6180108612679
 20
167.2778086215333
 30
0
 40
5
 41
42.35000000000001
 71
    4
 72
    1
  1
Quantity
  7
iso3098_i
210
0
220
0
230
1
 50
0
 73
    2
 44
1
  0
MTEXT
  5
9C
100
AcDbEntity
  8
0
  6
ByLayer
 62
  256
370
   -1
100
AcDbMText
 10
670.2285137376604
 20
117.819661628517
 30
0
 40
12
 41
40.01333333333333
 71
    4
 72
    1
  1
MOD
  7
iso3098_i
210
0
220
0
230
1
 50
0
 73
    2
 44
1
  0
MTEXT
  5
9D
100
AcDbEntity
  8
0
  6
ByLayer
 62
  256
370
   -1
100
AcDbMText
 10
712.0854987898966
 20
167.4279402089452
 30
0
 40
8
 41
132.7111111111111
 71
    4
 72
    1
  1
Part ID / number
  7
iso3098_i
210
0
220
0
230
1
 50
0
 73
    2
 44
1
  0
LWPOLYLINE
  5
9E
100
AcDbEntity
  8
0
  6
ByLayer
 62
  256
370
   -1
100
AcDbPolyline
 90
    4
 70
    1
 43
0
 10
1247.004056642513
 20
119.2731612881756
 10
1194.624837664108
 20
119.2731612881756
 10
1194.624837664108
 20
156.9272986260652
 10
1247.004056642513
 20
156.9272986260652
  0
LWPOLYLINE
  5
9F
100
AcDbEntity
  8
0
  6
ByLayer
 62
  256
370
   -1
100
AcDbPolyline
 90
    4
 70
    1
 43
0
 10
1192.521254572606
 20
141.571142058099
 10
1010.561317157664
 20
141.571142058099
 10
1010.561317157664
 20
156.716940316915
 10
1192.521254572606
 20
156.716940316915
  0
MTEXT
  5
A0
100
AcDbEntity
  8
0
  6
ByLayer
 62
  256
370
   -1
100
AcDbMText
 10
1010.982033775964
 20
148.7233245692066
 30
0
 40
6
 41
50.12
 71
    4
 72
    1
  1
Drawn by
  7
iso3098_i
210
0
220
0
230
1
 50
0
 73
    2
 44
1
  0
MTEXT
  5
A1
100
AcDbEntity
  8
0
  6
ByLayer
 62
  256
370
   -1
100
AcDbMText
 10
1134.462361247144
 20
149.144041187507
 30
0
 40
6
 41
52.29333333333333
 71
    4
 72
    1
  1
putnamjm
  7
iso3098_i
210
0
220
0
230
1
 50
0
 73
    2
 44
1
  0
LWPOLYLINE
  5
A2
100
AcDbEntity
  8
0
  6
ByLayer
 62
  256
370
   -1
100
AcDbPolyline
 90
    4
 70
    1
 43
0
 10
1010.811534343091
 20
139.7757739859491
 10
1080.780780925115
 20
139.7757739859491
 10
1080.780780925115
 20
125.2937671352512
 10
1010.811534343091
 20
125.2937671352512
  0
MTEXT
  5
A3
100
AcDbEntity
  8
0
  6
ByLayer
 62
  256
370
   -1
100
AcDbMText
 10
1013.577760370753
 20
132.616130149649
 30
0
 40
4
 41
54.24888888888889
 71
    4
 72
    1
  1
Controlled by
  7
iso3098_i
210
0
220
0
230
1
 50
0
 73
    2
 44
1
  0
LWPOLYLINE
  5
A4
100
AcDbEntity
  8
0
  6
ByLayer
 62
  256
370
   -1
100
AcDbPolyline
 90
    4
 70
    1
 43
0
 10
1081.757095993701
 20
139.2876164516559
 10
1192.080698743961
 20
139.2876164516559
 10
1192.080698743961
 20
109.9981643940647
 10
1081.757095993701
 20
109.9981643940647
  0
MTEXT
  5
A5
100
AcDbEntity
  8
0
  6
ByLayer
 62
  256
370
   -1
100
AcDbMText
 10
1133.501794628779
 20
132.1279726153558
 30
0
 40
6
 41
52.29333333333333
 71
    4
 72
    1
  1
putnamjm
  7
iso3098_i
210
0
220
0
230
1
 50
0
 73
    2
 44
1
  0
MTEXT
  5
A6
100
AcDbEntity
  8
0
  6
ByLayer
 62
  256
370
   -1
100
AcDbMText
 10
1011.136972699287
 20
117.4832465865602
 30
0
 40
6
 41
26.03999999999999
 71
    4
 72
    1
  1
DATE
  7
iso3098_i
210
0
220
0
230
1
 50
0
 73
    2
 44
1
  0
MTEXT
  5
A7
100
AcDbEntity
  8
0
  6
ByLayer
 62
  256
370
   -1
100
AcDbMText
 10
662.6180108612735
 20
65.55063849864209
 30
0
 40
6
 41
132.7466666666667
 71
    4
 72
    1
  1
Vortex Intrument Labs
  7
iso3098_i
210
0
220
0
230
1
 50
0
 73
    2
 44
1
  0
MTEXT
  5
A8
100
AcDbEntity
  8
0
  6
ByLayer
 62
  256
370
   -1
100
AcDbMText
 10
727.2410459849349
 20
55.03780024885987
 30
0
 40
6
 41
68.24666666666666
 71
    4
 72
    1
  1
Decatur, GA
  7
iso3098_i
210
0
220
0
230
1
 50
0
 73
    2
 44
1
  0
MTEXT
  5
A9
100
AcDbEntity
  8
0
  6
ByLayer
 62
  256
370
   -1
100
AcDbMText
 10
776.71322598391
 20
44.52496199907765
 30
0
 40
6
 41
18.12666666666667
 71
    4
 72
    1
  1
USA
  7
iso3098_i
210
0
220
0
230
1
 50
0
 73
    2
 44
1
  0
MTEXT
  5
AA
100
AcDbEntity
  8
0
  6
ByLayer
 62
  256
370
   -1
100
AcDbMText
 10
1014.351342813634
 20
101.6503939391168
 30
0
 40
6
 41
47.91333333333333
 71
    4
 72
    1
  1
revision
  7
iso3098_i
210
0
220
0
230
1
 50
0
 73
    2
 44
1
  0
MTEXT
  5
AB
100
AcDbEntity
  8
0
  6
ByLayer
 62
  256
370
   -1
100
AcDbMText
 10
1014.829697608642
 20
86.10386310136956
 30
0
 40
6
 41
41.45999999999999
 71
    4
 72
    1
  1
version
  7
iso3098_i
210
0
220
0
230
1
 50
0
 73
    2
 44
1
  0
LWPOLYLINE
  5
AC
100
AcDbEntity
  8
0
  6
ByLayer
 62
  256
370
   -1
100
AcDbPolyline
 90
    4
 70
    1
 43
0
 10
1081.967509220977
 20
93.01698340091927
 10
1192.102638416924
 20
93.01698340091927
 10
1192.102638416924
 20
78.03860583027057
 10
1081.967509220977
 20
78.03860583027057
  0
MTEXT
  5
AD
100
AcDbEntity
  8
0
  6
ByLayer
 62
  256
370
   -1
100
AcDbMText
 10
1123.80059960129
 20
117.7139744263217
 30
0
 40
6
 41
60.2
 71
    4
 72
    1
  1
5/11/2021
  7
iso3098_i
210
0
220
0
230
1
 50
0
 73
    2
 44
1
  0
MTEXT
  5
AE
100
AcDbEntity
  8
0
  6
ByLayer
 62
  256
370
   -1
100
AcDbMText
 10
857.5806724977256
 20
54.68860111122279
 30
0
 40
10
 41
72.77777777777779
 71
    4
 72
    1
  1
End Cap
  7
iso3098_i
210
0
220
0
230
1
 50
0
 73
    2
 44
1
  0
MTEXT
  5
AF
100
AcDbEntity
  8
0
  6
ByLayer
 62
  256
370
   -1
100
AcDbMText
 10
1139.742150694759
 20
184.6731023031147
 30
0
 40
6
 41
100.3266666666667
 71
    4
 72
    1
  1
galvanized steel
  7
iso3098_i
210
0
220
0
230
1
 50
0
 73
    2
 44
1
  0
MTEXT
  5
B0
100
AcDbEntity
  8
0
  6
ByLayer
 62
  256
370
   -1
100
AcDbMText
 10
678.3392875454088
 20
182.2565017411353
 30
0
 40
6
 41
9.993333333333332
 71
    4
 72
    1
  1
02
  7
iso3098_i
210
0
220
0
230
1
 50
0
 73
    2
 44
1
  0
MTEXT
  5
B1
100
AcDbEntity
  8
0
  6
ByLayer
 62
  256
370
   -1
100
AcDbMText
 10
1177.786394946049
 20
83.22178429968716
 30
0
 40
6
 41
1.46
 71
    4
 72
    1
  1
1
  7
iso3098_i
210
0
220
0
230
1
 50
0
 73
    2
 44
1
  0
MTEXT
  5
B2
100
AcDbEntity
  8
0
  6
ByLayer
 62
  256
370
   -1
100
AcDbMText
 10
1179.592118730438
 20
101.1604467726207
 30
0
 40
6
 41
2.913333333333333
 71
    4
 72
    1
  1
0
  7
iso3098_i
210
0
220
0
230
1
 50
0
 73
    2
 44
1
  0
MTEXT
  5
B3
100
AcDbEntity
  8
0
  6
ByLayer
 62
  256
370
   -1
100
AcDbMText
 10
798.8622088825377
 20
124.7786521727524
 30
0
 40
8
 41
184.5422222222222
 71
    4
 72
    1
  1
from 5" duct cap round
  7
iso3098_i
210
0
220
0
230
1
 50
0
 73
    2
 44
1
  0
LWPOLYLINE
  5
B4
100
AcDbEntity
  8
0
  6
ByLayer
 62
  256
370
   -1
100
AcDbPolyline
 90
    4
 70
    1
 43
0
 10
287.662608695656
 20
718.4034782608793
 10
308.7478260869607
 20
718.4034782608793
 10
308.7478260869607
 20
185.2486956521764
 10
287.662608695656
 20
185.2486956521764
  0
LWPOLYLINE
  5
B5
100
AcDbEntity
  8
0
  6
ByLayer
 62
  256
370
   -1
100
AcDbPolyline
 90
    4
 70
    1
 43
0
 10
308.7478260869607
 20
682.257391304357
 10
364.4730434782658
 20
682.257391304357
 10
364.4730434782658
 20
212.3582608695681
 10
308.7478260869607
 20
212.3582608695681
  0
DIMENSION
  5
B6
100
AcDbEntity
  8
0
  6
ByLayer
 62
  256
370
   -1
100
AcDbDimension
  2
*D1
 10
241.7761893081883
 20
185.2191088444633
 30
0
 11
244.9575271181417
 21
451.0700143179558
 31
0
 70
   33
 71
    5
 72
    0
  3
Standard
 53
0
210
0
220
0
230
1
100
AcDbAlignedDimension
 13
243.986086956525
 23
716.8973913043575
 33
0
 14
246.9982608695686
 24
185.2486956521764
 34
0
  0
DIMENSION
  5
B7
100
AcDbEntity
  8
0
  6
ByLayer
 62
  256
370
   -1
100
AcDbDimension
  2
*D2
 10
307.2417391304389
 20
760.5739130434886
 30
0
 11
296.6991304347866
 21
765.2614130434886
 31
0
 70
   33
 71
    5
 72
    0
  3
Standard
 53
0
210
0
220
0
230
1
100
AcDbAlignedDimension
 13
286.1565217391343
 23
762.0800000000103
 33
0
 14
307.2417391304389
 24
762.0800000000103
 34
0
  0
DIMENSION
  5
B8
100
AcDbEntity
  8
0
  6
ByLayer
 62
  256
370
   -1
100
AcDbDimension
  2
*D3
 10
364.4915656852638
 20
797.6646325569069
 30
0
 11
326.1782423952141
 21
803.1042751991837
 31
0
 70
   33
 71
    5
 72
    0
  3
Standard
 53
0
210
0
220
0
230
1
100
AcDbAlignedDimension
 13
287.662608695656
 23
798.2260869565325
 33
0
 14
364.4730434782658
 24
796.7200000000107
 34
0
  0
DIMENSION
  5
B9
100
AcDbEntity
  8
0
  6
ByLayer
 62
  256
370
   -1
100
AcDbDimension
  2
*D4
 10
362.966956521744
 20
736.4765217391404
 30
0
 11
337.6387377387716
 21
742.6620198199198
 31
0
 70
   33
 71
    5
 72
    0
  3
Standard
 53
0
210
0
220
0
230
1
100
AcDbAlignedDimension
 13
311.7600000000042
 23
739.4886956521839
 33
0
 14
362.966956521744
 24
736.4765217391404
 34
0
  0
DIMENSION
  5
BA
100
AcDbEntity
  8
0
  6
ByLayer
 62
  256
370
   -1
100
AcDbDimension
  2
*D5
 10
456.344347826093
 20
212.3582608695682
 30
0
 11
451.656847826093
 21
447.3078260869626
 31
0
 70
   33
 71
    5
 72
    0
  3
Standard
 53
0
210
0
220
0
230
1
100
AcDbAlignedDimension
 13
423.2104347826144
 23
682.257391304357
 33
0
 14
423.2104347826144
 24
212.3582608695681
 34
0
  0
MTEXT
  5
BB
100
AcDbEntity
  8
0
  6
ByLayer
 62
  256
370
   -1
100
AcDbMText
 10
1020.249475195306
 20
56.47809594831158
 30
0
 40
14
 41
201.5377777777778
 71
    4
 72
    1
  1
Lumino Display
  7
iso3098_i
210
0
220
0
230
1
 50
0
 73
    2
 44
1
  0
ENDSEC
  0
SECTION
  2
OBJECTS
  0
DICTIONARY
  5
C
330
0
100
AcDbDictionary
281
    1
  3
ACAD_GROUP
350
D
  0
DICTIONARY
  5
D
330
C
100
AcDbDictionary
281
    1
  0
ENDSEC
  0
EOF
